<?xml version="1.0" encoding="utf-8"?>
<!-- Generator: Adobe Illustrator 16.0.0, SVG Export Plug-In . SVG Version: 6.00 Build 0)  -->
<!DOCTYPE svg PUBLIC "-//W3C//DTD SVG 1.1//EN" "http://www.w3.org/Graphics/SVG/1.1/DTD/svg11.dtd">
<svg version="1.1" id="Capa_1" xmlns="http://www.w3.org/2000/svg" xmlns:xlink="http://www.w3.org/1999/xlink" x="0px" y="0px"
	 width="141.73px" height="141.73px" viewBox="0 0 141.73 141.73" enable-background="new 0 0 141.73 141.73" xml:space="preserve">
<circle fill="#CD8987" cx="70.865" cy="70.865" r="70.865"/>
<g>
	<g>
		<path fill="#31312F" d="M70.454,75.267c0.118,0,0.235,0,0.376,0c0.047,0,0.094,0,0.141,0c0.071,0,0.165,0,0.235,0
			c6.88-0.117,12.443-2.536,16.553-7.161c9.04-10.19,7.538-27.659,7.373-29.326c-0.587-12.515-6.504-18.502-11.389-21.296
			c-3.639-2.09-7.889-3.217-12.631-3.311h-0.165c-0.023,0-0.07,0-0.094,0h-0.141c-2.606,0-7.725,0.423-12.632,3.217
			c-4.931,2.794-10.941,8.781-11.529,21.39c-0.164,1.667-1.667,19.136,7.373,29.326C58.01,72.731,63.575,75.15,70.454,75.267z
			 M52.821,39.366c0-0.07,0.023-0.141,0.023-0.188c0.774-16.835,12.726-18.643,17.844-18.643h0.094c0.047,0,0.117,0,0.188,0
			c6.34,0.141,17.116,2.724,17.845,18.643c0,0.07,0,0.141,0.023,0.188c0.023,0.165,1.667,16.131-5.8,24.537
			c-2.958,3.334-6.902,4.978-12.092,5.025c-0.047,0-0.07,0-0.117,0l0,0c-0.047,0-0.07,0-0.118,0
			c-5.165-0.048-9.133-1.691-12.068-5.025C51.201,55.545,52.798,39.508,52.821,39.366z"/>
		<path fill="#31312F" d="M119.081,104.242c0-0.023,0-0.047,0-0.07c0-0.188-0.023-0.376-0.023-0.588
			c-0.141-4.648-0.446-15.52-10.636-18.994c-0.07-0.023-0.165-0.047-0.235-0.071c-10.59-2.7-19.395-8.805-19.488-8.875
			c-1.433-1.01-3.405-0.657-4.414,0.774c-1.01,1.433-0.658,3.405,0.774,4.414c0.398,0.282,9.744,6.786,21.438,9.792
			c5.471,1.948,6.081,7.795,6.246,13.148c0,0.211,0,0.399,0.023,0.587c0.023,2.113-0.117,5.377-0.494,7.255
			c-3.803,2.16-18.713,9.627-41.395,9.627c-22.587,0-37.591-7.49-41.418-9.65c-0.375-1.878-0.54-5.142-0.493-7.255
			c0-0.188,0.023-0.376,0.023-0.587c0.164-5.354,0.774-11.2,6.246-13.148c11.693-3.006,21.038-9.533,21.437-9.792
			c1.432-1.009,1.784-2.981,0.774-4.414c-1.009-1.433-2.982-1.784-4.414-0.774c-0.094,0.07-8.852,6.175-19.488,8.875
			c-0.094,0.023-0.164,0.048-0.234,0.071c-10.19,3.498-10.496,14.369-10.637,18.994c0,0.212,0,0.399-0.023,0.588
			c0,0.023,0,0.047,0,0.07c-0.023,1.221-0.047,7.489,1.197,10.636c0.235,0.61,0.658,1.127,1.221,1.479
			c0.705,0.47,17.586,11.224,45.833,11.224s45.128-10.777,45.833-11.224c0.54-0.353,0.985-0.869,1.221-1.479
			C119.128,111.731,119.104,105.463,119.081,104.242z"/>
	</g>
</g>
</svg>
