<?xml version="1.0" encoding="utf-8"?>
<!-- Generator: Adobe Illustrator 16.0.0, SVG Export Plug-In . SVG Version: 6.00 Build 0)  -->
<!DOCTYPE svg PUBLIC "-//W3C//DTD SVG 1.1//EN" "http://www.w3.org/Graphics/SVG/1.1/DTD/svg11.dtd">
<svg version="1.1" id="Capa_1" xmlns="http://www.w3.org/2000/svg" xmlns:xlink="http://www.w3.org/1999/xlink" x="0px" y="0px"
	 width="141.73px" height="141.73px" viewBox="0 0 141.73 141.73" enable-background="new 0 0 141.73 141.73" xml:space="preserve">
<g>
	<path fill="#FFFFFF" d="M70.866,0.295C31.728,0.295,0,32.023,0,71.161c0,35.102,25.549,64.172,59.047,69.801V85.945H41.952V66.146
		h17.095V51.549c0-16.938,10.345-26.169,25.458-26.169c7.237,0,13.458,0.539,15.264,0.776v17.705l-10.481,0.005
		c-8.217,0-9.801,3.904-9.801,9.635v12.636h19.605l-2.557,19.798H79.486v55.501c35.062-4.268,62.244-34.078,62.244-70.295
		C141.73,32.023,110.002,0.295,70.866,0.295z"/>
</g>
</svg>
