<?xml version="1.0" encoding="utf-8"?>
<!-- Generator: Adobe Illustrator 16.0.0, SVG Export Plug-In . SVG Version: 6.00 Build 0)  -->
<!DOCTYPE svg PUBLIC "-//W3C//DTD SVG 1.1//EN" "http://www.w3.org/Graphics/SVG/1.1/DTD/svg11.dtd">
<svg version="1.1" id="Warstwa_1" xmlns="http://www.w3.org/2000/svg" xmlns:xlink="http://www.w3.org/1999/xlink" x="0px" y="0px"
	 width="439.102px" height="113.87px" viewBox="16.898 235.95 439.102 113.87"
	 enable-background="new 16.898 235.95 439.102 113.87" xml:space="preserve">
<path fill="#CD8987" d="M121.278,331.112c-0.298,4.333-1.949,8.371-4.773,11.673c-2.823,3.302-6.555,5.558-10.791,6.525
	c-1.492,0.341-2.996,0.509-4.493,0.509c-2.754,0-5.484-0.57-8.058-1.703c-5.038-2.215-10.442-3.322-15.85-3.322
	c-5.313,0-10.626,1.068-15.59,3.208l-0.261,0.114c-3.979,1.748-8.318,2.161-12.555,1.194c-4.233-0.971-7.965-3.226-10.791-6.527
	c-2.821-3.305-4.47-7.34-4.768-11.673c-0.299-4.333,0.784-8.559,3.128-12.215l14.127-22.037c5.862-9.146,15.848-14.605,26.71-14.605
	s20.847,5.46,26.71,14.605l14.126,22.037C120.495,322.554,121.576,326.777,121.278,331.112z"/>
<path fill="#CD8987" d="M40.283,296.829c4.203-1.614,7.395-5.001,8.99-9.536c1.519-4.316,1.394-9.189-0.351-13.721
	c-1.746-4.531-4.921-8.229-8.939-10.414c-4.224-2.296-8.863-2.668-13.059-1.053c-8.441,3.246-12.314,13.678-8.634,23.258
	c2.94,7.627,9.798,12.44,16.731,12.44C36.792,297.804,38.567,297.49,40.283,296.829z"/>
<path fill="#CD8987" d="M86.832,257.76c0,8.029-3.831,15.058-9.519,18.841c-2.829,1.884-6.118,2.963-9.621,2.963
	c-10.552,0-19.136-9.782-19.136-21.804c0-12.026,8.584-21.81,19.136-21.81c3.503,0,6.792,1.08,9.621,2.963
	C83.001,242.697,86.832,249.727,86.832,257.76z"/>
<g>
	<path fill="#CDACA1" d="M123.73,271.506c-2.861,8.607-10.362,14.211-18.058,14.211c-1.646,0-3.304-0.256-4.928-0.797
		c-9.196-3.057-13.853-14.05-10.377-24.503c1.645-4.953,4.867-9.085,9.073-11.634c4.403-2.665,9.343-3.299,13.909-1.781
		c4.567,1.52,8.145,4.982,10.073,9.752C125.271,261.311,125.379,266.551,123.73,271.506z"/>
	<path fill="#CDACA1" d="M143.17,307.089c-3.883,5.242-9.694,8.093-15.279,8.093c-3.206,0-6.337-0.937-8.987-2.902
		c-7.266-5.377-8.217-16.463-2.123-24.711c6.103-8.243,16.984-10.573,24.264-5.197l0.002,0.004
		C148.314,287.757,149.267,298.843,143.17,307.089z"/>
	<path fill="#CDACA1" d="M77.313,276.601v-37.687c5.688,3.783,9.519,10.813,9.519,18.846
		C86.832,265.789,83.001,272.817,77.313,276.601z"/>
	<path fill="#CDACA1" d="M118.149,318.896c2.346,3.658,3.427,7.882,3.129,12.217c-0.298,4.333-1.949,8.371-4.773,11.673
		c-2.823,3.302-6.555,5.558-10.791,6.525c-1.492,0.341-2.996,0.509-4.493,0.509c-2.754,0-5.484-0.57-8.058-1.703
		c-5.038-2.215-10.442-3.322-15.85-3.322v-62.541c10.862,0,20.847,5.46,26.71,14.605L118.149,318.896z"/>
</g>
<g>
	<path fill="#31312F" d="M178.07,264.75h-9.543v-3.404h23.23v3.404h-9.59v27.604h-4.097V264.75z"/>
	<path fill="#31312F" d="M211.497,277.816h-12.197v11.179h13.594v3.358h-17.644v-31.008h16.946v3.359h-12.896v9.799h12.197V277.816z
		"/>
	<path fill="#31312F" d="M244.597,278.736c-0.232-4.324-0.512-9.523-0.465-13.388h-0.14c-1.071,3.634-2.375,7.499-3.957,11.777
		l-5.54,15.044h-3.073l-5.074-14.768c-1.49-4.371-2.747-8.373-3.631-12.054h-0.093c-0.093,3.864-0.326,9.063-0.605,13.71
		l-0.838,13.295h-3.864l2.188-31.008h5.167l5.354,14.998c1.303,3.818,2.374,7.223,3.166,10.443h0.14
		c0.792-3.129,1.909-6.533,3.306-10.443l5.586-14.998h5.167l1.955,31.008h-3.957L244.597,278.736z"/>
	<path fill="#31312F" d="M255.583,261.714c1.956-0.321,4.516-0.599,7.775-0.599c4.003,0,6.937,0.921,8.798,2.577
		c1.723,1.472,2.748,3.726,2.748,6.487c0,2.806-0.838,5.014-2.422,6.624c-2.141,2.255-5.633,3.404-9.59,3.404
		c-1.211,0-2.328-0.046-3.259-0.276v12.422h-4.05V261.714z M259.634,276.666c0.885,0.229,2.002,0.322,3.353,0.322
		c4.888,0,7.867-2.347,7.867-6.625c0-4.095-2.934-6.072-7.402-6.072c-1.77,0-3.119,0.137-3.817,0.321V276.666z"/>
	<path fill="#31312F" d="M279.1,261.346h4.051v27.649h13.406v3.358H279.1V261.346z"/>
	<path fill="#31312F" d="M326.072,276.527c0,10.674-6.564,16.332-14.57,16.332c-8.287,0-14.107-6.349-14.107-15.733
		c0-9.845,6.193-16.286,14.572-16.286C320.533,260.84,326.072,267.326,326.072,276.527z M301.725,277.033
		c0,6.625,3.631,12.561,10.01,12.561c6.424,0,10.055-5.844,10.055-12.882c0-6.165-3.258-12.605-10.008-12.605
		C305.076,264.106,301.725,270.225,301.725,277.033z"/>
	<path fill="#31312F" d="M355.217,290.973c-1.816,0.645-5.4,1.703-9.637,1.703c-4.75,0-8.66-1.196-11.732-4.095
		c-2.701-2.576-4.377-6.717-4.377-11.548c0.047-9.246,6.473-16.01,16.992-16.01c3.633,0,6.473,0.783,7.822,1.427l-0.979,3.267
		c-1.676-0.736-3.77-1.334-6.936-1.334c-7.635,0-12.617,4.691-12.617,12.467c0,7.867,4.795,12.514,12.105,12.514
		c2.652,0,4.469-0.368,5.4-0.828v-9.247h-6.379v-3.22h10.336V290.973z"/>
	<path fill="#31312F" d="M388.223,276.527c0,10.674-6.564,16.332-14.57,16.332c-8.287,0-14.107-6.349-14.107-15.733
		c0-9.845,6.193-16.286,14.572-16.286C382.684,260.84,388.223,267.326,388.223,276.527z M363.875,277.033
		c0,6.625,3.631,12.561,10.01,12.561c6.424,0,10.055-5.844,10.055-12.882c0-6.165-3.258-12.605-10.008-12.605
		C367.227,264.106,363.875,270.225,363.875,277.033z"/>
</g>
<g>
	<path fill="#4C4C4B" d="M170.581,323.167c1.224,0.744,3.012,1.365,4.894,1.365c2.792,0,4.423-1.458,4.423-3.566
		c0-1.953-1.129-3.069-3.984-4.154c-3.451-1.209-5.584-2.977-5.584-5.922c0-3.256,2.729-5.675,6.839-5.675
		c2.165,0,3.733,0.496,4.674,1.023l-0.753,2.201c-0.69-0.372-2.102-0.992-4.016-0.992c-2.886,0-3.984,1.706-3.984,3.132
		c0,1.953,1.286,2.914,4.204,4.031c3.577,1.363,5.396,3.069,5.396,6.139c0,3.225-2.416,6.016-7.404,6.016
		c-2.039,0-4.267-0.59-5.396-1.334L170.581,323.167z"/>
	<path fill="#4C4C4B" d="M186.425,305.556h2.729v10.077h0.094c0.564-0.806,1.129-1.55,1.663-2.232l6.462-7.845h3.388l-7.655,8.868
		l8.251,12.03h-3.231l-6.964-10.263l-2.008,2.294v7.969h-2.729V305.556z"/>
	<path fill="#4C4C4B" d="M203.43,305.556h2.729v18.635h9.035v2.264H203.43V305.556z"/>
	<path fill="#4C4C4B" d="M229.187,316.656h-8.219v7.534h9.161v2.264h-11.89v-20.898h11.419v2.264h-8.69v6.604h8.219V316.656z"/>
	<path fill="#4C4C4B" d="M233.674,305.804c1.318-0.217,3.043-0.402,5.239-0.402c2.698,0,4.674,0.62,5.929,1.736
		c1.161,0.992,1.851,2.512,1.851,4.371c0,1.892-0.565,3.38-1.631,4.465c-1.443,1.52-3.796,2.295-6.463,2.295
		c-0.815,0-1.568-0.031-2.196-0.186v8.371h-2.729V305.804z M236.403,315.881c0.596,0.155,1.349,0.218,2.259,0.218
		c3.294,0,5.302-1.582,5.302-4.465c0-2.76-1.977-4.094-4.988-4.094c-1.192,0-2.102,0.094-2.572,0.218V315.881z"/>
	<path fill="#4C4C4B" d="M255.573,324.873l11.733-16.96v-0.094h-10.729v-2.264h14.274v1.644l-11.671,16.898v0.093h11.828v2.264
		h-15.435V324.873z"/>
	<path fill="#4C4C4B" d="M291.777,315.788c0,7.193-4.424,11.007-9.82,11.007c-5.584,0-9.506-4.278-9.506-10.604
		c0-6.636,4.174-10.977,9.82-10.977C288.043,305.215,291.777,309.587,291.777,315.788z M275.369,316.129
		c0,4.465,2.447,8.465,6.744,8.465c4.33,0,6.777-3.938,6.777-8.682c0-4.155-2.195-8.495-6.744-8.495
		C277.629,307.417,275.369,311.54,275.369,316.129z"/>
	<path fill="#4C4C4B" d="M313.393,315.788c0,7.193-4.422,11.007-9.818,11.007c-5.584,0-9.506-4.278-9.506-10.604
		c0-6.636,4.172-10.977,9.82-10.977C309.66,305.215,313.393,309.587,313.393,315.788z M296.986,316.129
		c0,4.465,2.447,8.465,6.744,8.465c4.33,0,6.777-3.938,6.777-8.682c0-4.155-2.197-8.495-6.746-8.495
		C299.244,307.417,296.986,311.54,296.986,316.129z"/>
	<path fill="#4C4C4B" d="M316.939,305.556h2.73v18.635h9.035v2.264h-11.766V305.556z"/>
	<path fill="#4C4C4B" d="M348.596,315.788c0,7.193-4.422,11.007-9.818,11.007c-5.584,0-9.506-4.278-9.506-10.604
		c0-6.636,4.172-10.977,9.82-10.977C344.863,305.215,348.596,309.587,348.596,315.788z M332.189,316.129
		c0,4.465,2.447,8.465,6.744,8.465c4.33,0,6.777-3.938,6.777-8.682c0-4.155-2.197-8.495-6.746-8.495
		C334.447,307.417,332.189,311.54,332.189,316.129z"/>
	<path fill="#4C4C4B" d="M368.238,325.524c-1.225,0.434-3.641,1.146-6.494,1.146c-3.201,0-5.836-0.806-7.906-2.76
		c-1.82-1.736-2.949-4.526-2.949-7.782c0.031-6.231,4.361-10.79,11.451-10.79c2.447,0,4.359,0.527,5.27,0.961l-0.658,2.202
		c-1.129-0.496-2.541-0.899-4.674-0.899c-5.146,0-8.502,3.162-8.502,8.402c0,5.303,3.23,8.434,8.156,8.434
		c1.789,0,3.012-0.248,3.639-0.558v-6.232h-4.297v-2.171h6.965V325.524z"/>
	<path fill="#4C4C4B" d="M375.141,305.556v20.898h-2.73v-20.898H375.141z"/>
	<path fill="#4C4C4B" d="M394.686,325.772c-1.004,0.496-3.012,0.992-5.584,0.992c-5.961,0-10.447-3.721-10.447-10.573
		c0-6.542,4.486-10.977,11.043-10.977c2.635,0,4.299,0.559,5.02,0.931l-0.658,2.201c-1.035-0.496-2.51-0.868-4.268-0.868
		c-4.957,0-8.25,3.132-8.25,8.62c0,5.115,2.98,8.402,8.125,8.402c1.662,0,3.357-0.342,4.455-0.868L394.686,325.772z"/>
	<path fill="#4C4C4B" d="M396.662,324.873l11.732-16.96v-0.094h-10.729v-2.264h14.275v1.644l-11.672,16.898v0.093h11.828v2.264
		h-15.436V324.873z"/>
	<path fill="#4C4C4B" d="M415.455,326.454v-20.898h2.98l6.775,10.573c1.57,2.45,2.793,4.651,3.797,6.79l0.063-0.03
		c-0.25-2.791-0.314-5.333-0.314-8.589v-8.744h2.574v20.898h-2.762l-6.713-10.604c-1.475-2.326-2.887-4.713-3.953-6.977
		l-0.094,0.031c0.156,2.635,0.219,5.146,0.219,8.619v8.93H415.455z"/>
	<path fill="#4C4C4B" d="M440.584,326.454v-8.867l-6.682-12.031h3.105l2.98,5.768c0.816,1.581,1.443,2.853,2.102,4.31h0.063
		c0.598-1.364,1.318-2.729,2.135-4.31l3.043-5.768h3.105l-7.09,12v8.898H440.584z"/>
</g>
</svg>
