<?xml version="1.0" encoding="utf-8"?>
<!-- Generator: Adobe Illustrator 16.0.0, SVG Export Plug-In . SVG Version: 6.00 Build 0)  -->
<!DOCTYPE svg PUBLIC "-//W3C//DTD SVG 1.1//EN" "http://www.w3.org/Graphics/SVG/1.1/DTD/svg11.dtd">
<svg version="1.1" id="Capa_1" xmlns="http://www.w3.org/2000/svg" xmlns:xlink="http://www.w3.org/1999/xlink" x="0px" y="0px"
	 width="141.73px" height="141.73px" viewBox="0 0 141.73 141.73" enable-background="new 0 0 141.73 141.73" xml:space="preserve">
<g>
	<g>
		<path fill="#31312F" d="M94.658,90.894c-3.357,0-6.09-2.364-6.09-5.271s2.732-5.271,6.09-5.271c3.358,0,6.09,2.365,6.09,5.271
			c0,1.528,1.24,2.769,2.769,2.769s2.769-1.24,2.769-2.769c0-5.072-3.779-9.338-8.858-10.495v-1.44c0-1.528-1.239-2.768-2.769-2.768
			c-1.528,0-2.768,1.239-2.768,2.768v1.44c-5.078,1.157-8.858,5.423-8.858,10.495c0,5.959,5.216,10.808,11.626,10.808
			c3.358,0,6.09,2.364,6.09,5.271c0,2.907-2.731,5.271-6.09,5.271c-3.357,0-6.09-2.364-6.09-5.271c0-1.528-1.239-2.768-2.768-2.768
			c-1.529,0-2.769,1.239-2.769,2.768c0,5.073,3.78,9.338,8.858,10.496v1.195c0,1.528,1.239,2.769,2.768,2.769
			c1.529,0,2.769-1.24,2.769-2.769v-1.195c5.079-1.158,8.858-5.423,8.858-10.496C106.285,95.743,101.069,90.894,94.658,90.894z"/>
	</g>
</g>
<g>
	<g>
		<path fill="#31312F" d="M124.978,74.429c-3.616-5.635-8.71-10.144-14.732-13.039c-1.378-0.662-3.032-0.082-3.694,1.296
			s-0.082,3.031,1.295,3.694c10.494,5.045,17.275,15.823,17.275,27.46c0,4.979-1.228,9.918-3.549,14.281
			c-0.719,1.35-0.207,3.026,1.143,3.744c0.414,0.221,0.859,0.325,1.299,0.325c0.99,0,1.948-0.533,2.445-1.469
			c2.746-5.161,4.198-10.999,4.198-16.882C130.657,86.931,128.693,80.219,124.978,74.429z"/>
	</g>
</g>
<g>
	<g>
		<path fill="#31312F" d="M99.01,57.855h-0.186c-1.529,0-2.77,1.239-2.77,2.768c0,1.529,1.24,2.769,2.77,2.769h0.16
			c0.004,0,0.008,0,0.013,0c1.522,0,2.761-1.23,2.769-2.755C101.771,59.107,100.539,57.862,99.01,57.855z"/>
	</g>
</g>
<g>
	<g>
		<path fill="#31312F" d="M81.496,121.302c-10.493-5.045-17.274-15.824-17.274-27.461c0-4.979,1.227-9.917,3.549-14.281
			c0.718-1.35,0.207-3.025-1.144-3.743c-1.349-0.719-3.026-0.207-3.744,1.143c-2.747,5.162-4.198,10.999-4.198,16.882
			c0,6.909,1.964,13.622,5.68,19.412c3.616,5.635,8.711,10.144,14.732,13.038c0.387,0.187,0.796,0.274,1.198,0.274
			c1.03,0,2.021-0.578,2.497-1.569C83.455,123.618,82.875,121.964,81.496,121.302z"/>
	</g>
</g>
<g>
	<g>
		<path fill="#31312F" d="M90.52,124.291l-0.16-0.001c-1.535-0.003-2.773,1.227-2.781,2.756c-0.007,1.528,1.228,2.773,2.756,2.78
			l0.186,0.001c1.529,0,2.768-1.239,2.768-2.769C93.287,125.53,92.049,124.291,90.52,124.291z"/>
	</g>
</g>
<g>
	<g>
		<path fill="#31312F" d="M107.241,48.489c-0.337-0.803-0.749-1.559-1.229-2.261h7.206c7.021,0,12.733-5.713,12.733-12.733
			c0-7.021-5.712-12.733-12.733-12.733H91.051c1.409-2.049,2.236-4.528,2.236-7.197c0-7.021-5.713-12.733-12.733-12.733h-67.82
			C5.712,0.831,0,6.543,0,13.564c0,7.021,5.712,12.733,12.734,12.733h22.167c-1.41,2.049-2.237,4.527-2.237,7.197
			c0,2.669,0.827,5.148,2.237,7.197h-7.22c-7.021,0-12.733,5.712-12.733,12.733c0,4.032,1.886,7.631,4.821,9.965
			c-2.935,2.335-4.821,5.934-4.821,9.966s1.886,7.631,4.821,9.966c-2.935,2.334-4.821,5.933-4.821,9.965s1.886,7.631,4.821,9.966
			c-2.935,2.334-4.821,5.933-4.821,9.965c0,7.021,5.712,12.733,12.733,12.733h32.623c8.594,9.192,20.82,14.948,34.367,14.948
			c25.947,0,47.059-21.11,47.059-47.059C141.73,72.245,127.105,54.002,107.241,48.489z M113.218,26.298
			c3.969,0,7.197,3.229,7.197,7.197c0,3.968-3.229,7.197-7.197,7.197H95.502H45.398c-3.969,0-7.197-3.229-7.197-7.197
			c0-3.969,3.229-7.197,7.197-7.197H113.218z M12.734,20.761c-3.969,0-7.197-3.229-7.197-7.197c0-3.969,3.229-7.197,7.197-7.197
			h67.82c3.969,0,7.197,3.229,7.197,7.197c0,3.968-3.229,7.197-7.197,7.197H12.734z M27.682,46.228h67.82
			c1.115,0,2.183,0.259,3.141,0.723c-1.31-0.109-2.633-0.169-3.971-0.169c-12.996,0-24.777,5.295-33.301,13.841H27.682
			c-3.968,0-7.197-3.229-7.197-7.197S23.713,46.228,27.682,46.228z M27.682,66.159h28.959c-3.143,4.306-5.572,9.161-7.115,14.395
			H27.682c-3.969,0-7.197-3.229-7.197-7.197S23.713,66.159,27.682,66.159z M27.682,86.09h20.573
			c-0.42,2.522-0.642,5.111-0.642,7.751c0,2.255,0.163,4.473,0.471,6.644H27.682c-3.969,0-7.197-3.229-7.197-7.197
			S23.713,86.09,27.682,86.09z M27.682,120.415c-3.969,0-7.197-3.229-7.197-7.197s3.229-7.197,7.197-7.197h21.533
			c1.396,5.208,3.666,10.062,6.642,14.395H27.682z M94.672,135.363c-22.896,0-41.522-18.627-41.522-41.522
			s18.626-41.522,41.522-41.522c22.895,0,41.521,18.627,41.521,41.522S117.566,135.363,94.672,135.363z"/>
	</g>
</g>
</svg>
