<?xml version="1.0" encoding="utf-8"?>
<!-- Generator: Adobe Illustrator 16.0.0, SVG Export Plug-In . SVG Version: 6.00 Build 0)  -->
<!DOCTYPE svg PUBLIC "-//W3C//DTD SVG 1.1//EN" "http://www.w3.org/Graphics/SVG/1.1/DTD/svg11.dtd">
<svg version="1.1" xmlns="http://www.w3.org/2000/svg" xmlns:xlink="http://www.w3.org/1999/xlink" x="0px" y="0px"
	 width="141.73px" height="141.73px" viewBox="0 0 141.73 141.73" enable-background="new 0 0 141.73 141.73" xml:space="preserve">
<g id="Warstwa_2">
	<circle fill="#CD8987" cx="70.865" cy="70.865" r="70.865"/>
</g>
<g id="Capa_1">
	<g>
		<g>
			<path fill="#FFFFFF" d="M89.907,88.124c-2.351,0-4.264-1.655-4.264-3.689s1.913-3.689,4.264-3.689s4.263,1.655,4.263,3.689
				c0,1.07,0.868,1.938,1.938,1.938c1.07,0,1.938-0.868,1.938-1.938c0-3.551-2.646-6.536-6.201-7.347V76.08
				c0-1.07-0.867-1.938-1.938-1.938S87.97,75.01,87.97,76.08v1.008c-3.555,0.811-6.201,3.796-6.201,7.347
				c0,4.172,3.651,7.565,8.139,7.565c2.351,0,4.263,1.655,4.263,3.689c0,2.035-1.912,3.69-4.263,3.69s-4.264-1.655-4.264-3.69
				c0-1.07-0.867-1.938-1.937-1.938c-1.071,0-1.938,0.867-1.938,1.938c0,3.551,2.646,6.536,6.201,7.348v0.836
				c0,1.07,0.867,1.938,1.938,1.938s1.938-0.868,1.938-1.938v-0.836c3.556-0.812,6.201-3.797,6.201-7.348
				C98.046,91.518,94.395,88.124,89.907,88.124z"/>
		</g>
	</g>
	<g>
		<g>
			<path fill="#FFFFFF" d="M111.131,76.598c-2.532-3.944-6.098-7.101-10.313-9.127c-0.964-0.463-2.122-0.057-2.586,0.907
				c-0.463,0.965-0.058,2.122,0.906,2.586c7.347,3.532,12.093,11.077,12.093,19.222c0,3.485-0.858,6.942-2.483,9.997
				c-0.504,0.944-0.146,2.118,0.8,2.621c0.289,0.154,0.602,0.228,0.909,0.228c0.692,0,1.363-0.374,1.711-1.028
				c1.923-3.613,2.939-7.699,2.939-11.817C115.106,85.349,113.731,80.651,111.131,76.598z"/>
		</g>
	</g>
	<g>
		<g>
			<path fill="#FFFFFF" d="M92.953,64.996h-0.13c-1.07,0-1.938,0.868-1.938,1.938c0,1.07,0.868,1.938,1.938,1.938h0.112
				c0.002,0,0.005,0,0.009,0c1.065,0,1.933-0.861,1.938-1.928C94.886,65.873,94.023,65.001,92.953,64.996z"/>
		</g>
	</g>
	<g>
		<g>
			<path fill="#FFFFFF" d="M80.693,109.409c-7.346-3.531-12.092-11.077-12.092-19.223c0-3.485,0.859-6.942,2.484-9.997
				c0.503-0.944,0.145-2.117-0.801-2.62c-0.944-0.503-2.117-0.145-2.62,0.8c-1.923,3.613-2.939,7.699-2.939,11.817
				c0,4.836,1.375,9.535,3.975,13.589c2.532,3.944,6.099,7.1,10.313,9.126c0.271,0.131,0.557,0.192,0.839,0.192
				c0.721,0,1.414-0.404,1.748-1.099C82.064,111.03,81.658,109.873,80.693,109.409z"/>
		</g>
	</g>
	<g>
		<g>
			<path fill="#FFFFFF" d="M87.01,111.502l-0.112-0.001c-1.074-0.002-1.941,0.858-1.946,1.929s0.859,1.941,1.929,1.946l0.13,0.001
				c1.07,0,1.938-0.867,1.938-1.938C88.947,112.369,88.08,111.502,87.01,111.502z"/>
		</g>
	</g>
	<g>
		<g>
			<path fill="#FFFFFF" d="M98.715,58.44c-0.235-0.562-0.524-1.091-0.86-1.583h5.044c4.915,0,8.913-3.999,8.913-8.914
				c0-4.915-3.998-8.913-8.913-8.913H87.382c0.986-1.434,1.565-3.17,1.565-5.038c0-4.915-3.999-8.914-8.913-8.914H32.56
				c-4.915,0-8.914,3.999-8.914,8.914c0,4.914,3.999,8.913,8.914,8.913h15.517c-0.986,1.435-1.566,3.169-1.566,5.038
				s0.58,3.604,1.566,5.038h-5.054c-4.915,0-8.914,3.999-8.914,8.914c0,2.823,1.32,5.342,3.375,6.976
				c-2.054,1.634-3.375,4.154-3.375,6.976s1.32,5.342,3.375,6.976c-2.054,1.634-3.375,4.153-3.375,6.976s1.32,5.342,3.375,6.977
				c-2.054,1.634-3.375,4.152-3.375,6.975c0,4.915,3.999,8.914,8.914,8.914h22.836c6.016,6.435,14.574,10.464,24.057,10.464
				c18.163,0,32.941-14.777,32.941-32.941C122.857,75.069,112.62,62.299,98.715,58.44z M102.898,42.906
				c2.778,0,5.038,2.26,5.038,5.038s-2.26,5.038-5.038,5.038H90.497H55.425c-2.778,0-5.038-2.26-5.038-5.038s2.26-5.038,5.038-5.038
				H102.898z M32.56,39.031c-2.778,0-5.038-2.261-5.038-5.038c0-2.778,2.26-5.038,5.038-5.038h47.474
				c2.777,0,5.038,2.26,5.038,5.038c0,2.777-2.261,5.038-5.038,5.038H32.56z M43.023,56.858h47.474c0.781,0,1.528,0.181,2.199,0.506
				c-0.917-0.077-1.844-0.118-2.78-0.118c-9.097,0-17.344,3.707-23.31,9.688H43.023c-2.778,0-5.038-2.26-5.038-5.038
				S40.246,56.858,43.023,56.858z M43.023,70.809h20.271c-2.2,3.014-3.9,6.412-4.98,10.076H43.023c-2.778,0-5.038-2.26-5.038-5.038
				S40.245,70.809,43.023,70.809z M43.023,84.76h14.401c-0.294,1.766-0.449,3.578-0.449,5.426c0,1.578,0.113,3.131,0.33,4.65H43.023
				c-2.778,0-5.038-2.26-5.038-5.038S40.245,84.76,43.023,84.76z M43.023,108.788c-2.778,0-5.038-2.26-5.038-5.038
				c0-2.777,2.26-5.038,5.038-5.038h15.073c0.978,3.646,2.565,7.043,4.648,10.076H43.023z M89.916,119.252
				c-16.027,0-29.065-13.039-29.065-29.065S73.889,61.12,89.916,61.12c16.026,0,29.065,13.04,29.065,29.066
				S105.942,119.252,89.916,119.252z"/>
		</g>
	</g>
</g>
</svg>
