<?xml version="1.0" encoding="utf-8"?>
<!-- Generator: Adobe Illustrator 16.0.0, SVG Export Plug-In . SVG Version: 6.00 Build 0)  -->
<!DOCTYPE svg PUBLIC "-//W3C//DTD SVG 1.1//EN" "http://www.w3.org/Graphics/SVG/1.1/DTD/svg11.dtd">
<svg version="1.1" xmlns="http://www.w3.org/2000/svg" xmlns:xlink="http://www.w3.org/1999/xlink" x="0px" y="0px" width="102.4px"
	 height="101.389px" viewBox="21.561 20.315 102.4 101.389" enable-background="new 21.561 20.315 102.4 101.389"
	 xml:space="preserve">
<g id="Warstwa_2">
</g>
<g id="Capa_1">
	<g id="XMLID_195_">
		<g id="XMLID_441_">
			<path id="XMLID_273_" fill="#31312F" d="M62.09,121.704c-4.715,0-9.43-1.751-13.026-5.259c-1.702-1.658-3.052-3.59-4.014-5.741
				c-2.488-5.565-6.924-10.001-12.489-12.489c-2.151-0.962-4.083-2.313-5.742-4.014c-7.029-7.209-7.008-18.92,0.048-26.104
				c2.871-2.923,6.524-4.785,10.564-5.385c2.299-0.341,4.343-1.366,5.912-2.964l0.121-0.123c4.373-4.373,10.611-6.288,17.563-5.391
				c6.664,0.86,13.233,4.233,18.497,9.498c5.265,5.264,8.638,11.833,9.497,18.497c0.897,6.953-1.017,13.19-5.39,17.563l-0.11,0.109
				c-1.603,1.575-2.629,3.622-2.969,5.919c-0.598,4.044-2.459,7.7-5.383,10.573C71.569,119.933,66.83,121.704,62.09,121.704
				L62.09,121.704z M57.782,60.007c-3.9,0-7.465,1.256-10.073,3.864l-0.08,0.082c-2.492,2.54-5.713,4.165-9.316,4.699
				c-2.738,0.407-5.215,1.669-7.163,3.653c-4.787,4.872-4.801,12.815-0.033,17.705c1.127,1.157,2.438,2.073,3.894,2.725
				c6.916,3.093,12.427,8.604,15.52,15.52c0.651,1.457,1.568,2.766,2.724,3.895c4.892,4.77,12.835,4.753,17.708-0.036
				c1.983-1.948,3.246-4.429,3.651-7.167c0.532-3.602,2.156-6.824,4.697-9.322l0.076-0.075c3.027-3.027,4.334-7.484,3.68-12.55
				c-0.691-5.354-3.457-10.688-7.788-15.02C70.067,62.764,63.558,60.007,57.782,60.007L57.782,60.007z"/>
		</g>
		<g id="XMLID_481_">
			<path id="XMLID_270_" fill="#31312F" d="M82.078,50.733c-3.462,0-6.563-1.222-8.865-3.524c-2.687-2.687-3.901-6.462-3.42-10.63
				c0.45-3.908,2.369-7.73,5.4-10.761c3.03-3.031,6.852-4.949,10.761-5.4c4.168-0.48,7.942,0.733,10.629,3.42
				c2.688,2.687,3.902,6.462,3.422,10.629c-0.452,3.909-2.37,7.73-5.401,10.761c-3.03,3.031-6.853,4.949-10.761,5.4
				C83.246,50.698,82.657,50.733,82.078,50.733L82.078,50.733z M87.691,26.32c-0.342,0-0.691,0.021-1.05,0.062
				c-2.567,0.297-5.126,1.604-7.203,3.682c-2.078,2.077-3.386,4.636-3.683,7.205c-0.267,2.309,0.339,4.333,1.702,5.696
				c1.363,1.364,3.387,1.968,5.696,1.702c2.569-0.296,5.127-1.604,7.205-3.681c2.077-2.078,3.384-4.636,3.681-7.205
				c0.268-2.31-0.337-4.332-1.701-5.696C91.186,26.93,89.561,26.32,87.691,26.32z"/>
		</g>
		<g id="XMLID_483_">
			<path id="XMLID_267_" fill="#31312F" d="M41.781,52.26c-3.463,0-6.563-1.222-8.865-3.523c-2.687-2.688-3.901-6.462-3.42-10.63
				c0.451-3.909,2.369-7.73,5.4-10.761c3.031-3.031,6.853-4.949,10.761-5.4c4.168-0.481,7.943,0.733,10.63,3.42
				c2.687,2.688,3.901,6.462,3.42,10.63c-0.451,3.908-2.369,7.73-5.4,10.761c-3.031,3.031-6.852,4.949-10.761,5.4
				C42.949,52.226,42.36,52.26,41.781,52.26z M47.395,27.848c-0.342,0-0.691,0.02-1.049,0.062c-2.568,0.296-5.126,1.604-7.204,3.681
				c-2.078,2.078-3.385,4.637-3.682,7.205c-0.266,2.309,0.338,4.332,1.702,5.696c1.364,1.364,3.387,1.969,5.697,1.702
				c2.569-0.296,5.127-1.604,7.205-3.682c2.077-2.078,3.384-4.636,3.681-7.205c0.267-2.309-0.337-4.332-1.702-5.696
				C50.889,28.458,49.264,27.848,47.395,27.848z"/>
		</g>
		<g id="XMLID_84_">
			<path id="XMLID_242_" fill="#31312F" d="M105.932,74.586c-3.462,0-6.563-1.221-8.864-3.523
				c-2.688-2.687-3.902-6.461-3.421-10.629c0.451-3.908,2.369-7.73,5.4-10.761c3.031-3.031,6.853-4.949,10.761-5.4
				c4.167-0.482,7.942,0.733,10.63,3.42c2.687,2.688,3.901,6.462,3.42,10.63c-0.451,3.909-2.368,7.73-5.399,10.761
				c-3.031,3.031-6.854,4.949-10.762,5.4C107.1,74.552,106.511,74.586,105.932,74.586z M111.545,50.174
				c-0.342,0-0.692,0.02-1.049,0.061c-2.568,0.297-5.128,1.604-7.205,3.682c-2.077,2.078-3.385,4.637-3.682,7.205
				c-0.266,2.309,0.338,4.332,1.702,5.696c1.364,1.364,3.388,1.969,5.696,1.702c2.568-0.296,5.127-1.604,7.204-3.681
				c2.078-2.078,3.386-4.636,3.682-7.205c0.268-2.309-0.338-4.332-1.701-5.696C115.039,50.784,113.415,50.174,111.545,50.174
				L111.545,50.174z"/>
		</g>
		<g id="XMLID_3_">
			<path id="XMLID_239_" fill="#31312F" d="M103.914,114.393c-3.463,0-6.563-1.222-8.865-3.523
				c-2.687-2.688-3.902-6.463-3.421-10.63c0.451-3.908,2.369-7.729,5.4-10.761s6.853-4.949,10.762-5.401
				c4.167-0.48,7.942,0.734,10.629,3.422c2.688,2.686,3.902,6.461,3.421,10.629c-0.451,3.908-2.369,7.73-5.4,10.762
				c-3.031,3.03-6.853,4.948-10.761,5.399C105.082,114.359,104.493,114.393,103.914,114.393z M109.527,89.98
				c-0.343,0-0.692,0.021-1.05,0.062c-2.568,0.297-5.126,1.604-7.204,3.682c-2.077,2.077-3.385,4.636-3.682,7.205
				c-0.267,2.309,0.338,4.332,1.702,5.696c1.363,1.363,3.387,1.969,5.696,1.701c2.568-0.297,5.127-1.604,7.205-3.682
				c2.077-2.077,3.384-4.636,3.681-7.204c0.267-2.31-0.338-4.332-1.701-5.696C113.021,90.59,111.396,89.98,109.527,89.98z"/>
		</g>
	</g>
</g>
</svg>
