<?xml version="1.0" encoding="utf-8"?>
<!-- Generator: Adobe Illustrator 16.0.0, SVG Export Plug-In . SVG Version: 6.00 Build 0)  -->
<!DOCTYPE svg PUBLIC "-//W3C//DTD SVG 1.1//EN" "http://www.w3.org/Graphics/SVG/1.1/DTD/svg11.dtd">
<svg version="1.1" id="Capa_1" xmlns="http://www.w3.org/2000/svg" xmlns:xlink="http://www.w3.org/1999/xlink" x="0px" y="0px"
	 width="141.73px" height="141.73px" viewBox="0 0 141.73 141.73" enable-background="new 0 0 141.73 141.73" xml:space="preserve">
<g id="outline">
	<path fill="#31312F" d="M2.963,81.898l3.343-3.341c3.074,35.658,34.473,62.074,70.132,58.999
		c29.733-2.562,53.874-25.102,58.468-54.59c0.201-1.31-0.696-2.536-2.007-2.738c-1.31-0.201-2.536,0.696-2.737,2.007
		c-5.1,32.744-35.777,55.157-68.523,50.06c-26.957-4.197-47.689-26.051-50.463-53.188l2.793,2.792c0.937,0.937,2.457,0.937,3.394,0
		c0.938-0.936,0.938-2.457,0-3.395l-7.2-7.199c-0.937-0.938-2.456-0.938-3.394,0l0,0l-7.2,7.199c-0.938,0.938-0.938,2.459,0,3.395
		C0.506,82.835,2.026,82.835,2.963,81.898L2.963,81.898z"/>
	<path fill="#31312F" d="M138.769,64.104l-3.343,3.342c-3.072-35.659-34.472-62.074-70.131-59
		C35.561,11.01,11.422,33.548,6.828,63.036c-0.202,1.31,0.696,2.536,2.006,2.739c1.31,0.202,2.536-0.696,2.738-2.006l0,0
		c5.103-32.746,35.785-55.155,68.53-50.052c26.951,4.2,47.682,26.049,50.457,53.184l-2.797-2.795c-0.938-0.937-2.456-0.937-3.394,0
		c-0.938,0.938-0.938,2.457,0,3.395l7.2,7.2c0.938,0.938,2.456,0.938,3.394,0l0,0l7.2-7.2c0.938-0.938,0.938-2.457,0-3.395
		C141.225,63.168,139.706,63.168,138.769,64.104L138.769,64.104z"/>
	<path fill="#31312F" d="M84.398,98.847l0.004-0.002c0,0,14.476-12.066,14.506-12.099c0.482-0.452,0.757-1.083,0.757-1.746
		c0,0-0.056-36.543-0.103-36.695c-0.308-1.012-1.24-1.704-2.297-1.704h-38.4c-0.473-0.001-0.938,0.14-1.331,0.403l-14.4,9.6
		c-0.59,0.395-0.973,1.032-1.048,1.738c-0.007,0.039-0.011,0.083-0.014,0.129c0,0.031-0.004,0.061-0.004,0.09
		c0,0.015-0.002,0.025-0.002,0.041v38.398c0,1.326,1.075,2.399,2.4,2.399h38.399C83.426,99.403,83.969,99.206,84.398,98.847
		L84.398,98.847z M94.865,83.878l-9.6,7.999V59.885l9.6-6.4V83.878z M80.465,94.6H46.866V61.002h9.6V75.4c0,1.327,1.075,2.4,2.4,2.4
		h9.6c1.325,0,2.4-1.073,2.4-2.4V61.002h9.599V94.6z M61.266,73.002v-12h4.8v12H61.266z M52.393,56.201l7.2-4.8h29.747l-7.2,4.8
		H52.393z"/>
	<path fill="#31312F" d="M61.266,85.001h-4.8c-1.325,0-2.4,1.075-2.4,2.399c0,1.327,1.075,2.4,2.4,2.4h4.8
		c1.326,0,2.4-1.073,2.4-2.4C63.666,86.076,62.591,85.001,61.266,85.001z"/>
	<path fill="#31312F" d="M68.466,87.4c0,1.327,1.075,2.4,2.4,2.4h2.4c1.326,0,2.399-1.073,2.399-2.4
		c0-1.324-1.073-2.399-2.399-2.399h-2.4C69.541,85.001,68.466,86.076,68.466,87.4z"/>
	<circle fill="#31312F" cx="70.866" cy="111.401" r="2.4"/>
	<circle fill="#31312F" cx="61.266" cy="111.401" r="2.4"/>
	<circle fill="#31312F" cx="80.465" cy="111.401" r="2.4"/>
</g>
</svg>
