<?xml version="1.0" encoding="utf-8"?>
<!-- Generator: Adobe Illustrator 16.0.0, SVG Export Plug-In . SVG Version: 6.00 Build 0)  -->
<!DOCTYPE svg PUBLIC "-//W3C//DTD SVG 1.1//EN" "http://www.w3.org/Graphics/SVG/1.1/DTD/svg11.dtd">
<svg version="1.1" id="Capa_1" xmlns="http://www.w3.org/2000/svg" xmlns:xlink="http://www.w3.org/1999/xlink" x="0px" y="0px"
	 width="141.73px" height="141.73px" viewBox="0 0 141.73 141.73" enable-background="new 0 0 141.73 141.73" xml:space="preserve">
<circle fill="#CD8987" cx="70.865" cy="70.865" r="70.865"/>
<path fill="#31312F" d="M51.703,99.176c-5.999,0-10.862,4.863-10.862,10.863c0,5.998,4.863,10.861,10.862,10.861
	s10.862-4.863,10.862-10.861C62.558,104.043,57.699,99.182,51.703,99.176z M51.703,116.907c-3.793,0-6.869-3.075-6.869-6.868
	c0-3.794,3.076-6.869,6.869-6.869s6.869,3.075,6.869,6.869C58.572,113.832,55.496,116.907,51.703,116.907z"/>
<path fill="#31312F" d="M110.905,53.593H40.402l-1.438-8.047c-0.886-4.953-4.769-8.828-9.724-9.704l-5.211-0.918
	c-1.086-0.193-2.123,0.531-2.316,1.617c-0.193,1.086,0.531,2.123,1.618,2.316l5.231,0.918c3.301,0.585,5.885,3.169,6.47,6.47
	l7.068,39.873c0.834,4.771,4.979,8.252,9.823,8.247h41.931c4.404,0.013,8.295-2.87,9.563-7.088l9.385-31.109
	c0.174-0.607,0.064-1.261-0.3-1.777C112.122,53.891,111.531,53.596,110.905,53.593z M99.603,86.097
	c-0.753,2.534-3.088,4.267-5.729,4.254H51.943c-2.909,0.008-5.398-2.085-5.891-4.952l-4.932-27.833h67.108L99.603,86.097z"/>
<path fill="#31312F" d="M93.634,99.176c-5.999,0-10.861,4.863-10.861,10.863c0,5.998,4.862,10.861,10.861,10.861
	s10.861-4.863,10.861-10.861C104.489,104.043,99.63,99.182,93.634,99.176z M93.634,116.907c-3.793,0-6.869-3.075-6.869-6.868
	c0-3.794,3.076-6.869,6.869-6.869s6.868,3.075,6.868,6.869C100.502,113.832,97.427,116.907,93.634,116.907z"/>
</svg>
