<?xml version="1.0" encoding="utf-8"?>
<!-- Generator: Adobe Illustrator 16.0.0, SVG Export Plug-In . SVG Version: 6.00 Build 0)  -->
<!DOCTYPE svg PUBLIC "-//W3C//DTD SVG 1.1//EN" "http://www.w3.org/Graphics/SVG/1.1/DTD/svg11.dtd">
<svg version="1.1" xmlns="http://www.w3.org/2000/svg" xmlns:xlink="http://www.w3.org/1999/xlink" x="0px" y="0px"
	 width="141.73px" height="141.73px" viewBox="0 0 141.73 141.73" enable-background="new 0 0 141.73 141.73" xml:space="preserve">
<g id="Warstwa_2">
	<circle fill="#CD8987" cx="70.865" cy="70.865" r="70.865"/>
</g>
<g id="Capa_1">
	<g>
		<g>
			<path fill="#FFFFFF" d="M40.63,88.817c-6.253,0-11.339,5.085-11.339,11.339c0,6.253,5.085,11.339,11.339,11.339
				c6.253,0,11.338-5.086,11.338-11.339C51.968,93.902,46.882,88.817,40.63,88.817z M40.63,107.715
				c-4.169,0-7.559-3.391-7.559-7.559c0-4.169,3.39-7.559,7.559-7.559c4.168,0,7.559,3.391,7.559,7.559
				S44.798,107.715,40.63,107.715z"/>
		</g>
	</g>
	<g>
		<g>
			<path fill="#FFFFFF" d="M104.881,88.817c-6.253,0-11.339,5.085-11.339,11.339c0,6.253,5.086,11.339,11.339,11.339
				s11.338-5.086,11.338-11.339C116.219,93.902,111.134,88.817,104.881,88.817z M104.881,107.715c-4.169,0-7.56-3.391-7.56-7.559
				c0-4.169,3.391-7.559,7.56-7.559s7.559,3.391,7.559,7.559S109.05,107.715,104.881,107.715z"/>
		</g>
	</g>
	<g>
		<g>
			<path fill="#FFFFFF" d="M127.257,78.346L110.25,51.89c-0.349-0.541-0.947-0.867-1.59-0.867H87.873c-1.045,0-1.89,0.847-1.89,1.89
				v47.243c0,1.045,0.845,1.89,1.89,1.89h7.559v-3.78h-5.67V54.802h17.866l16.149,25.122v18.342h-9.448v3.779h11.338
				c1.045,0,1.891-0.845,1.891-1.89V79.369C127.558,79.008,127.453,78.651,127.257,78.346z"/>
		</g>
	</g>
	<g>
		<g>
			<path fill="#FFFFFF" d="M97.321,75.59V62.361h15.118v-3.78H95.433c-1.046,0-1.891,0.847-1.891,1.89v17.008
				c0,1.044,0.845,1.89,1.891,1.89h28.345V75.59H97.321L97.321,75.59z"/>
		</g>
	</g>
	<g>
		<g>
			<path fill="#FFFFFF" d="M87.873,37.795h-71.81c-1.043,0-1.89,0.847-1.89,1.89v60.472c0,1.045,0.847,1.89,1.89,1.89h15.118v-3.78
				H17.953V41.574h68.031v56.691H50.078v3.78h37.795c1.045,0,1.889-0.845,1.889-1.89V39.684
				C89.762,38.641,88.918,37.795,87.873,37.795z"/>
		</g>
	</g>
	<g>
		<g>
			<rect x="16.063" y="90.707" fill="#FFFFFF" width="11.338" height="3.78"/>
		</g>
	</g>
	<g>
		<g>
			<rect x="53.858" y="90.707" fill="#FFFFFF" width="32.125" height="3.78"/>
		</g>
	</g>
	<g>
		<g>
			<rect x="118.109" y="90.707" fill="#FFFFFF" width="7.558" height="3.78"/>
		</g>
	</g>
	<g>
		<g>
			<rect x="21.732" y="45.353" fill="#FFFFFF" width="66.141" height="3.78"/>
		</g>
	</g>
	<g display="none">
		<g display="inline">
			<rect x="30.708" y="105.116" fill="#FFFFFF" width="4.724" height="4.725"/>
		</g>
	</g>
	<g>
		<g>
			<rect x="102.99" y="98.265" fill="#FFFFFF" width="3.779" height="3.78"/>
		</g>
	</g>
	<g>
		<g>
			<rect x="21.732" y="30.235" fill="#FFFFFF" width="26.457" height="3.78"/>
		</g>
	</g>
	<g>
		<g>
			<rect x="14.173" y="30.235" fill="#FFFFFF" width="3.78" height="3.78"/>
		</g>
	</g>
</g>
</svg>
